<?xml version="1.0" encoding="utf-8"?>
<!-- Generator: Adobe Illustrator 23.0.1, SVG Export Plug-In . SVG Version: 6.00 Build 0)  -->
<svg version="1.1" id="Capa_1" xmlns="http://www.w3.org/2000/svg" xmlns:xlink="http://www.w3.org/1999/xlink" x="0px" y="0px" width="218.867" height="49"
	 viewBox="0 0 218.9 49" style="enable-background:new 0 0 218.9 49;" xml:space="preserve">
<style type="text/css">
	.st0{fill:#5B00FB;}
	.st1{fill:none;}
	.st2{enable-background:new    ;}
</style>
<g>
	<g id="Grupo_1" transform="translate(375.083 361.803)">
	</g>
	<g class="st0">
		<path d="M101,34.9c-1.6,1-3.7,1.4-6.1,1.4c-2.7,0-4.9-0.8-6.4-2.3c-1.6-1.5-2.3-3.6-2.3-6.2c0-2.7,0.9-4.8,2.6-6.5s4-2.5,6.8-2.5
			c1.8,0,3.4,0.2,4.7,0.7v3.6C99,22.3,97.4,22,95.5,22c-1.6,0-2.9,0.5-3.9,1.5s-1.5,2.4-1.5,4.1s0.4,3.1,1.3,4S93.5,33,95,33
			c0.9,0,1.6-0.1,2.2-0.4v-3.3h-3.4v-3h7.2L101,34.9L101,34.9z"/>
		<path d="M114.8,31.1h-7.9c0.1,1.8,1.2,2.6,3.3,2.6c1.3,0,2.5-0.3,3.5-0.9v2.7c-1.1,0.6-2.6,0.9-4.3,0.9c-1.9,0-3.5-0.5-4.5-1.6
			c-1.1-1.1-1.6-2.6-1.6-4.5c0-2,0.6-3.6,1.7-4.8c1.2-1.2,2.6-1.8,4.3-1.8c1.8,0,3.1,0.5,4.1,1.6c1,1,1.4,2.5,1.4,4.3V31.1z
			 M111.3,28.8c0-1.7-0.7-2.6-2.1-2.6c-0.6,0-1.1,0.2-1.5,0.7s-0.7,1.1-0.8,1.8h4.4V28.8z"/>
		<path d="M127.8,31.1H120c0.1,1.8,1.2,2.6,3.3,2.6c1.3,0,2.5-0.3,3.5-0.9v2.7c-1.1,0.6-2.6,0.9-4.3,0.9c-1.9,0-3.5-0.5-4.5-1.6
			c-1.1-1.1-1.6-2.6-1.6-4.5c0-2,0.6-3.6,1.7-4.8c1.2-1.2,2.6-1.8,4.3-1.8c1.8,0,3.1,0.5,4.1,1.6c1,1,1.4,2.5,1.4,4.3v1.5H127.8z
			 M124.4,28.8c0-1.7-0.7-2.6-2.1-2.6c-0.6,0-1.1,0.2-1.5,0.7s-0.7,1.1-0.8,1.8h4.4V28.8z"/>
		<path d="M142.1,36.1h-4.5l-3.9-6l0,0v6H130V18.2h3.7v11.4l0,0l3.6-5.6h4.4l-4.3,5.7L142.1,36.1z"/>
		<path d="M165.2,36.1h-3.8v-6.9h-7v6.9h-3.8V19.2h3.8v6.7h7v-6.7h3.8V36.1z"/>
		<path d="M180.1,36.1h-3.7v-1.8h-0.1c-0.9,1.4-2.1,2.1-3.7,2.1c-2.8,0-4.2-1.7-4.2-5.1V24h3.7v6.9c0,1.7,0.7,2.6,2,2.6
			c0.7,0,1.2-0.2,1.6-0.7c0.4-0.5,0.6-1.1,0.6-1.9V24h3.7L180.1,36.1L180.1,36.1z"/>
		<path d="M194.9,36.1h-3.7v-6.7c0-1.9-0.7-2.8-2-2.8c-0.6,0-1.2,0.2-1.6,0.7c-0.4,0.5-0.6,1.1-0.6,1.9v6.9h-3.7V24h3.7v1.9l0,0
			c0.9-1.5,2.2-2.2,3.9-2.2c2.7,0,4,1.7,4,5L194.9,36.1L194.9,36.1z"/>
		<path d="M205.2,35.9c-0.6,0.3-1.4,0.4-2.5,0.4c-2.6,0-3.9-1.4-3.9-4.1v-5.5h-2V24h2v-2.6l3.7-1.1V24h2.7v2.7h-2.7v4.9
			c0,1.3,0.5,1.9,1.5,1.9c0.4,0,0.8-0.1,1.2-0.3V35.9z"/>
	</g>
</g>
<g transform="translate(0.000000,256.000000) scale(0.100000,-0.100000)">
	<path d="M466.6,2538.8c-9.6-6.4-14.1-14.6-14.1-25.7c0-5.4,1.2-12,2.7-14.6c3-6.1,12.5-14.5,16.2-14.5c2,0,2.5-3.7,2.5-19.4v-19.4
		l-26.2-0.7c-24.1-0.7-27.3-1.2-36.6-5.7c-16.6-7.9-27.7-23.6-29.4-41.4l-1.1-9.6h-36.8c-41.4,0-52.3-1.8-66.5-10.9
		c-21.4-13.7-31.8-36-31.8-68c0-9.8-0.2-10.3-5-11.4c-8.4-2-16.2-7.9-20.9-15.7c-4.3-7.5-4.5-8.4-4.5-44.6c0-26.9,0.7-38.4,2.5-42.6
		c3.2-7.9,13.9-16.9,21.6-18.4l6.2-1.1v-12c0-15.7,4.3-34.4,9.6-43.7c6.1-10.3,18.2-21.4,29.6-27.3l9.8-5h188.2H671l10.3,5.2
		c12,6.1,26.8,21.1,31.6,31.9c3.9,8.9,7.1,26.8,7.1,40.7v10.2l6.2,1.1c7.7,1.4,18.4,10.5,21.6,18.4c1.8,4.3,2.5,15.7,2.5,42.6
		c0,36.2-0.2,37.1-4.5,44.6c-4.6,7.9-12.5,13.7-20.9,15.7c-4.8,1.1-5,1.6-5,11.4c0,31.9-10.3,54.2-31.8,68
		c-14.3,9.1-25.2,10.9-66.7,10.9h-37.1v5c0,8.4-5,22.5-10.7,30.3c-11.4,15.9-27.8,21.8-61,21.8h-21.1v19.6c0,15.7,0.5,19.6,2.5,19.6
		c4.1,0,13.9,9.1,16.4,15.5c3.9,9.1,3.2,22.1-1.6,29.3c-6.6,9.8-14.5,14.1-26.2,14.1C475.1,2542.9,471.2,2541.9,466.6,2538.8z
		 M540.3,2423.4c12.8-3.6,24.4-18.2,24.6-30.7v-5h-82.1h-82.1v5c0.2,6.6,5.7,18.2,11.2,23.2c8.9,8.4,14.6,9.1,69.9,9.3
		C512.3,2425.2,536.3,2424.5,540.3,2423.4z M665.9,2365.4c12-3.4,22.7-13,28.7-25.5l5-10.2v-93.7c0-91.2-0.2-93.8-3.7-101.7
		c-4.8-10.5-13.6-19.1-24.8-24.3l-8.9-4.3H482.8H303.5l-8.9,4.3c-10.7,5-19.1,13.2-24.6,24.1c-3.9,8.2-3.9,8.4-3.9,101.9v93.7
		l5,10.2c5.9,12.1,16.8,21.9,28,25.5C311.4,2369.1,653,2369.3,665.9,2365.4z M245.5,2236.1c0-22.5-0.7-41-1.4-41
		c-0.9,0-3.4,2.1-5.9,4.6c-4.3,4.5-4.3,5.2-4.3,37.3c0,29.6,0.4,33,3.4,36.4C245,2281.9,245.5,2279.8,245.5,2236.1z M728.3,2273.3
		c3-3.4,3.4-6.8,3.4-36.4c0-32.1,0-32.8-4.3-37.3c-2.5-2.5-5-4.6-5.9-4.6c-0.7,0-1.4,18.6-1.4,41
		C720.1,2279.8,720.6,2281.9,728.3,2273.3z"/>
	<path d="M352.6,2336.1c-8.9-2.9-15.5-7.1-23.6-15.9c-13.6-14.5-14.3-18.4-13.6-88.1l0.5-59.4l4.8-9.1c5.5-10.5,15-19.3,26.2-24.6
		c8-3.7,9.8-3.7,135.8-3.7h127.6l10.2,5c10.9,5.4,18.7,13.2,25,25c3.9,7.3,4.1,9.1,4.6,66.9c0.7,69.4,0.2,72.8-13.2,87.6
		c-4.6,5.2-11.6,11.1-15.7,13.2l-7.3,3.9l-128.5,0.4C414.8,2337.4,355.1,2336.9,352.6,2336.1z M615.2,2312.9
		c3.4-2.3,8.2-7.1,10.5-10.5c4.3-6.2,4.3-6.6,4.8-61.7c0.4-36.6,0-57.8-1.4-62.1c-2.5-8.9-10-17.3-18.7-21.2
		c-6.8-3-14.5-3.4-127.6-3.4s-120.8,0.4-127.6,3.4c-8.7,3.9-16.2,12.3-18.7,21.2c-1.2,4.3-1.8,25.7-1.4,62.1l0.5,55.5l4.5,6.2
		c2.3,3.6,7.5,8.6,11.4,11.1l7.3,4.6l125.1-0.4l124.9-0.5L615.2,2312.9z"/>
	<path d="M388.3,2262.5c-15.9-10.7-19.1-34.1-6.6-47.6c5-5.4,16.8-10.9,23.6-10.9c15.3,0,29.6,13.6,30.9,29.3
		c1.6,19.1-10,31.8-30,32.8C396.3,2266.6,393.6,2266,388.3,2262.5z"/>
	<path d="M545.6,2263.3c-7.3-3.6-12.1-10.2-14.8-20.3c-4.3-16.1,5.5-33,21.6-37.3c20.9-5.7,39.6,8.7,39.6,30.3
		c0,12.1-6.1,22.3-16.8,27.8C568.8,2267.3,552.9,2266.9,545.6,2263.3z"/>
</g>
</svg>
