<?xml version="1.0" encoding="utf-8"?>
<!-- Generator: Adobe Illustrator 27.2.0, SVG Export Plug-In . SVG Version: 6.00 Build 0)  -->
<svg version="1.1" id="Capa_1" xmlns="http://www.w3.org/2000/svg" xmlns:xlink="http://www.w3.org/1999/xlink" width="218.867" height="49"
	 viewBox="0 0 218.867 49" style="enable-background:new 0 0 218.9 49;" xml:space="preserve">
<style type="text/css">
	.st0{fill:#5B00FB;}
	.st1{fill:none;}
	.st2{enable-background:new    ;}
</style>
<g>
	<g id="Grupo_1" transform="translate(375.083 361.803)">
		<rect id="Rectángulo_2" x="-371.1" y="-348.8" class="st0" width="69" height="29"/>
	</g>
	<path id="Rectángulo_3" class="st0" d="M84.5,13L84.5,13c4.1,0,7.5,3.4,7.5,7.5v14c0,4.1-3.4,7.5-7.5,7.5l0,0
		c-4.1,0-7.5-3.4-7.5-7.5v-14C77,16.4,80.4,13,84.5,13z"/>
	<g class="st2">
		<path d="M111,34.9c-1.6,1-3.7,1.4-6.1,1.4c-2.7,0-4.9-0.8-6.4-2.3c-1.6-1.5-2.3-3.6-2.3-6.2c0-2.7,0.9-4.8,2.6-6.5
			c1.7-1.7,4-2.5,6.8-2.5c1.8,0,3.4,0.2,4.7,0.7v3.6c-1.3-0.8-2.9-1.1-4.8-1.1c-1.6,0-2.9,0.5-3.9,1.5c-1,1-1.5,2.4-1.5,4.1
			c0,1.7,0.4,3.1,1.3,4c0.9,0.9,2.1,1.4,3.6,1.4c0.9,0,1.6-0.1,2.2-0.4v-3.3h-3.4v-3h7.2V34.9z"/>
		<path d="M124.8,31.1h-7.9c0.1,1.8,1.2,2.6,3.3,2.6c1.3,0,2.5-0.3,3.5-0.9v2.7c-1.1,0.6-2.6,0.9-4.3,0.9c-1.9,0-3.5-0.5-4.5-1.6
			c-1.1-1.1-1.6-2.6-1.6-4.5c0-2,0.6-3.6,1.7-4.8c1.2-1.2,2.6-1.8,4.3-1.8c1.8,0,3.1,0.5,4.1,1.6c1,1,1.4,2.5,1.4,4.3V31.1z
			 M121.3,28.8c0-1.7-0.7-2.6-2.1-2.6c-0.6,0-1.1,0.2-1.5,0.7c-0.4,0.5-0.7,1.1-0.8,1.8H121.3z"/>
		<path d="M137.8,31.1H130c0.1,1.8,1.2,2.6,3.3,2.6c1.3,0,2.5-0.3,3.5-0.9v2.7c-1.1,0.6-2.6,0.9-4.3,0.9c-1.9,0-3.5-0.5-4.5-1.6
			c-1.1-1.1-1.6-2.6-1.6-4.5c0-2,0.6-3.6,1.7-4.8c1.2-1.2,2.6-1.8,4.3-1.8c1.8,0,3.1,0.5,4.1,1.6c1,1,1.4,2.5,1.4,4.3V31.1z
			 M134.4,28.8c0-1.7-0.7-2.6-2.1-2.6c-0.6,0-1.1,0.2-1.5,0.7c-0.4,0.5-0.7,1.1-0.8,1.8H134.4z"/>
		<path d="M152.1,36.1h-4.5l-3.9-6h0v6h-3.7V18.2h3.7v11.4h0l3.6-5.6h4.4l-4.3,5.7L152.1,36.1z"/>
		<path d="M175.2,36.1h-3.8v-6.9h-7v6.9h-3.8V19.2h3.8v6.7h7v-6.7h3.8V36.1z"/>
		<path d="M190.1,36.1h-3.7v-1.8h-0.1c-0.9,1.4-2.1,2.1-3.7,2.1c-2.8,0-4.2-1.7-4.2-5.1V24h3.7v6.9c0,1.7,0.7,2.6,2,2.6
			c0.7,0,1.2-0.2,1.6-0.7c0.4-0.5,0.6-1.1,0.6-1.9V24h3.7V36.1z"/>
		<path d="M204.9,36.1h-3.7v-6.7c0-1.9-0.7-2.8-2-2.8c-0.6,0-1.2,0.2-1.6,0.7c-0.4,0.5-0.6,1.1-0.6,1.9v6.9h-3.7V24h3.7v1.9h0
			c0.9-1.5,2.2-2.2,3.9-2.2c2.7,0,4,1.7,4,5V36.1z"/>
		<path d="M215.2,35.9c-0.6,0.3-1.4,0.4-2.5,0.4c-2.6,0-3.9-1.4-3.9-4.1v-5.5h-2V24h2v-2.6l3.7-1.1V24h2.7v2.7h-2.7v4.9
			c0,1.3,0.5,1.9,1.5,1.9c0.4,0,0.8-0.1,1.2-0.3V35.9z"/>
	</g>
</g>
</svg>
