<?xml version="1.0" standalone="no"?>
<!DOCTYPE svg PUBLIC "-//W3C//DTD SVG 20010904//EN"
 "http://www.w3.org/TR/2001/REC-SVG-20010904/DTD/svg10.dtd">
<svg version="1.0" xmlns="http://www.w3.org/2000/svg"
 width="300.000000pt" height="256.000000pt" viewBox="0 0 300.000000 256.000000"
 preserveAspectRatio="xMidYMid meet">
<metadata>
Created by potrace 1.16, written by Peter Selinger 2001-2019
</metadata>
<g transform="translate(0.000000,256.000000) scale(0.100000,-0.100000)"
fill="#000000" stroke="none">
<path d="M1409 2537 c-54 -36 -79 -82 -79 -144 0 -30 7 -67 15 -82 17 -34 70
-81 91 -81 11 0 14 -21 14 -109 l0 -109 -147 -4 c-135 -4 -153 -7 -205 -32
-93 -44 -155 -132 -165 -232 l-6 -54 -206 0 c-232 0 -293 -10 -373 -61 -120
-77 -178 -202 -178 -381 0 -55 -1 -58 -28 -64 -47 -11 -91 -44 -117 -88 -24
-42 -25 -47 -25 -250 0 -151 4 -215 14 -239 18 -44 78 -95 121 -103 l35 -6 0
-67 c0 -88 24 -193 54 -245 34 -58 102 -120 166 -153 l55 -28 1055 0 1055 0
58 29 c67 34 150 118 177 179 22 50 40 150 40 228 l0 57 35 6 c43 8 103 59
121 103 10 24 14 88 14 239 0 203 -1 208 -25 250 -26 44 -70 77 -117 88 -27 6
-28 9 -28 64 0 179 -58 304 -178 381 -80 51 -141 61 -374 61 l-208 0 0 28 c0
47 -28 126 -60 170 -64 89 -156 122 -342 122 l-118 0 0 110 c0 88 3 110 14
110 23 0 78 51 92 87 22 51 18 124 -9 164 -37 55 -81 79 -147 79 -43 0 -65 -6
-91 -23z m413 -647 c72 -20 137 -102 138 -172 l0 -28 -460 0 -460 0 0 28 c1
37 32 102 63 130 50 47 82 51 392 52 170 0 305 -4 327 -10z m704 -325 c67 -19
127 -73 161 -143 l28 -57 0 -525 c0 -511 -1 -526 -21 -570 -27 -59 -76 -107
-139 -136 l-50 -24 -1005 0 -1005 0 -50 24 c-60 28 -107 74 -138 135 -22 46
-22 47 -22 571 l0 525 28 57 c33 68 94 123 157 143 69 21 1984 22 2056 0z
m-2356 -725 c0 -126 -4 -230 -8 -230 -5 0 -19 12 -33 26 -24 25 -24 29 -24
209 0 166 2 185 19 204 43 48 46 36 46 -209z m2706 209 c17 -19 19 -38 19
-204 0 -180 0 -184 -24 -209 -14 -14 -28 -26 -33 -26 -4 0 -8 104 -8 230 0
245 3 257 46 209z"/>
<path d="M770 1401 c-50 -16 -87 -40 -132 -89 -76 -81 -80 -103 -76 -494 l3
-333 27 -51 c31 -59 84 -108 147 -138 45 -21 55 -21 761 -21 l715 0 57 28 c61
30 105 74 140 140 22 41 23 51 26 375 4 389 1 408 -74 491 -26 29 -65 62 -88
74 l-41 22 -720 2 c-396 1 -731 -2 -745 -6z m1472 -130 c19 -13 46 -40 59 -59
24 -35 24 -37 27 -346 2 -205 0 -324 -8 -348 -14 -50 -56 -97 -105 -119 -38
-17 -81 -19 -715 -19 -634 0 -677 2 -715 19 -49 22 -91 69 -105 119 -7 24 -10
144 -8 348 l3 311 25 35 c13 20 42 48 64 62 l41 26 701 -2 700 -3 36 -24z"/>
<path d="M970 988 c-89 -60 -107 -191 -37 -267 28 -30 94 -61 132 -61 86 0
166 76 173 164 9 107 -56 178 -168 184 -55 3 -70 0 -100 -20z"/>
<path d="M1852 993 c-41 -20 -68 -57 -83 -114 -24 -90 31 -185 121 -209 117
-32 222 49 222 170 0 68 -34 125 -94 156 -36 19 -125 17 -166 -3z"/>
</g>
</svg>
